<svg xmlns="http://www.w3.org/2000/svg" xmlns:xlink="http://www.w3.org/1999/xlink" width="50" height="50" viewBox="0 0 50 50"><defs><path id="kp5la" d="M399 257a25 25 0 1 1 50 0 25 25 0 0 1-50 0z"/><path id="kp5lb" d="M419 264.25v2.5h-3.75v-2.5"/><path id="kp5lc" d="M431.5 264.25v2.5h-3.75v-2.5"/><path id="kp5ld" d="M431.5 264.25h-16.25v-5l1.25-1.25h13.75l1.25 1.25z"/><path id="kp5le" d="M414 254.25v2.5"/><path id="kp5lf" d="M432.75 254.25v2.5"/><path id="kp5lg" d="M416.5 258v-6.25c0-.69.56-1.25 1.25-1.25H429c.69 0 1.25.56 1.25 1.25V258"/><path id="kp5lh" d="M416.5 260.5a1.25 1.25 0 1 1 2.5 0 1.25 1.25 0 0 1-2.5 0z"/><path id="kp5li" d="M426.5 260.5a1.25 1.25 0 1 1 2.5 0 1.25 1.25 0 0 1-2.5 0z"/><path id="kp5lj" d="M416.5 248h13.75"/></defs><g><g transform="translate(-399 -232)"><use fill="#72e0da" fill-opacity=".2" xlink:href="#kp5la"/></g><g transform="translate(-399 -232)"><use fill="#fff" fill-opacity="0" stroke="#72e0da" stroke-linecap="round" stroke-linejoin="round" stroke-miterlimit="50" stroke-width="1.5" xlink:href="#kp5lb"/></g><g transform="translate(-399 -232)"><use fill="#fff" fill-opacity="0" stroke="#72e0da" stroke-linecap="round" stroke-linejoin="round" stroke-miterlimit="50" stroke-width="1.5" xlink:href="#kp5lc"/></g><g transform="translate(-399 -232)"><use fill="#fff" fill-opacity="0" stroke="#72e0da" stroke-linecap="round" stroke-linejoin="round" stroke-miterlimit="50" stroke-width="1.5" xlink:href="#kp5ld"/></g><g transform="translate(-399 -232)"><use fill="#fff" fill-opacity="0" stroke="#72e0da" stroke-linecap="round" stroke-linejoin="round" stroke-miterlimit="50" stroke-width="1.5" xlink:href="#kp5le"/></g><g transform="translate(-399 -232)"><use fill="#fff" fill-opacity="0" stroke="#72e0da" stroke-linecap="round" stroke-linejoin="round" stroke-miterlimit="50" stroke-width="1.5" xlink:href="#kp5lf"/></g><g transform="translate(-399 -232)"><use fill="#fff" fill-opacity="0" stroke="#72e0da" stroke-linecap="round" stroke-linejoin="round" stroke-miterlimit="50" stroke-width="1.5" xlink:href="#kp5lg"/></g><g transform="translate(-399 -232)"><use fill="#72e0da" xlink:href="#kp5lh"/></g><g transform="translate(-399 -232)"><use fill="#72e0da" xlink:href="#kp5li"/></g><g transform="translate(-399 -232)"><use fill="#fff" fill-opacity="0" stroke="#72e0da" stroke-linecap="round" stroke-linejoin="round" stroke-miterlimit="50" stroke-width="1.5" xlink:href="#kp5lj"/></g></g></svg>