<svg xmlns="http://www.w3.org/2000/svg" xmlns:xlink="http://www.w3.org/1999/xlink" width="19" height="20" viewBox="0 0 19 20"><defs><path id="ujava" d="M1837.73 108.46v.08c0 1.4 1.06 2.46 2.45 2.46 1.4 0 2.46-1.07 2.46-2.46v-.08"/><path id="ujavb" d="M1845.9 101.18v-2.45a5.7 5.7 0 0 0-5.72-5.73 5.7 5.7 0 0 0-5.73 5.73v2.45c0 2.7-2.45 3.36-2.45 4.91 0 1.4 3.2 2.46 8.18 2.46 5 0 8.18-1.07 8.18-2.46 0-1.55-2.45-2.2-2.45-4.9z"/></defs><g><g transform="translate(-1831 -92)"><use fill="#fff" fill-opacity="0" stroke="#b0bdc5" stroke-linecap="round" stroke-linejoin="round" stroke-miterlimit="50" stroke-width="2" xlink:href="#ujava"/></g><g transform="translate(-1831 -92)"><use fill="#fff" fill-opacity="0" stroke="#b0bdc5" stroke-linecap="round" stroke-linejoin="round" stroke-miterlimit="50" stroke-width="2" xlink:href="#ujavb"/></g></g></svg>