<?xml version="1.0" encoding="UTF-8"?>
<svg width="20px" height="25px" viewBox="0 0 20 25" version="1.1" xmlns="http://www.w3.org/2000/svg" xmlns:xlink="http://www.w3.org/1999/xlink">
    <!-- Generator: Sketch 47.1 (45422) - http://www.bohemiancoding.com/sketch -->
    <title>Page 1</title>
    <desc>Created with Sketch.</desc>
    <defs></defs>
    <g id="Visual-Design" stroke="none" stroke-width="1" fill="none" fill-rule="evenodd" stroke-linecap="round" stroke-linejoin="round">
        <g id="Chat@2x" transform="translate(-45.000000, -274.000000)" stroke-width="2">
            <g id="Page-1" transform="translate(46.000000, 275.000000)">
                <path d="M15.7867714,5 L16.4988,5 C17.2247143,5 17.8133143,5.54796452 17.8133143,6.22376348 L17.8133143,21.7762365 C17.8133143,22.4520355 17.2247143,23 16.4988,23 L1.31451429,23 C0.5886,23 0,22.4520355 0,21.7762365 L0,6.22376348 C0,5.54796452 0.5886,5 1.31451429,5 L6.57694286,5" id="Stroke-1" stroke="#FAD200"></path>
                <path d="M13.5072514,2.43226286 L11.3387657,2.43226286 C11.3387657,1.15992 10.3073657,0.12852 9.03528,0.12852 C7.76293714,0.12852 6.73153714,1.15992 6.73153714,2.43226286 L4.56305143,2.43226286 C4.11459429,2.43226286 3.75099429,2.79586286 3.75099429,3.24432 L3.75099429,6.61520571 L14.3193086,6.61520571 L14.3193086,3.24432 C14.3193086,2.79586286 13.9557086,2.43226286 13.5072514,2.43226286 Z" id="Stroke-3" stroke="#FAD200"></path>
                <path d="M5,13 L13,13" id="Stroke-5" stroke="#00BDDD"></path>
                <path d="M5,17 L13,17" id="Stroke-7" stroke="#00BDDD"></path>
            </g>
        </g>
    </g>
</svg>