<svg xmlns="http://www.w3.org/2000/svg" xmlns:xlink="http://www.w3.org/1999/xlink" width="20" height="25" viewBox="0 0 20 25"><defs><path id="izt0a" d="M61.79 280h.7c.73 0 1.32.55 1.32 1.22v15.56c0 .67-.59 1.22-1.31 1.22H47.3c-.72 0-1.31-.55-1.31-1.22v-15.56c0-.67.59-1.22 1.31-1.22h5.27"/><path id="izt0b" d="M59.5 277.43h-2.16a2.3 2.3 0 1 0-4.6 0h-2.18a.81.81 0 0 0-.81.82v3.37h10.57v-3.37a.81.81 0 0 0-.81-.82z"/><path id="izt0c" d="M51 288h8"/><path id="izt0d" d="M51 292h8"/></defs><g><g transform="translate(-45 -274)"><use fill="#fff" fill-opacity="0" stroke="#b0bdc5" stroke-linecap="round" stroke-linejoin="round" stroke-miterlimit="50" stroke-width="2" xlink:href="#izt0a"/></g><g transform="translate(-45 -274)"><use fill="#fff" fill-opacity="0" stroke="#b0bdc5" stroke-linecap="round" stroke-linejoin="round" stroke-miterlimit="50" stroke-width="2" xlink:href="#izt0b"/></g><g transform="translate(-45 -274)"><use fill="#fff" fill-opacity="0" stroke="#b0bdc5" stroke-linecap="round" stroke-linejoin="round" stroke-miterlimit="50" stroke-width="2" xlink:href="#izt0c"/></g><g transform="translate(-45 -274)"><use fill="#fff" fill-opacity="0" stroke="#b0bdc5" stroke-linecap="round" stroke-linejoin="round" stroke-miterlimit="50" stroke-width="2" xlink:href="#izt0d"/></g></g></svg>