<svg xmlns="http://www.w3.org/2000/svg" xmlns:xlink="http://www.w3.org/1999/xlink" width="24" height="24" viewBox="0 0 24 24"><defs><path id="purna" d="M45.55 290.94l-.26-.35A7.42 7.42 0 0 1 55 279.93"/><path id="purnb" d="M61 285c-2 2-6 0-6 0l-1 1a4.24 4.24 0 0 1-6 0l5.34-4.83a7.41 7.41 0 0 1 10.65.17c2.78 2.95 2.49 7.67-.38 10.54l-.27.27"/><path id="purnc" d="M50.68 299.22l-4.95-4.95a2.5 2.5 0 0 1 3.54-3.54l4.95 4.95a2.5 2.5 0 0 1-3.54 3.54z"/><path id="purnd" d="M57.23 285.75l5.48 5.47a3 3 0 0 1 0 4.25l-4.25 4.24a3 3 0 0 1-4.24 0l-.27-.26"/></defs><g><g transform="translate(-43 -278)"><use fill="#fff" fill-opacity="0" stroke="#00bddd" stroke-linecap="round" stroke-linejoin="round" stroke-miterlimit="50" stroke-width="2" xlink:href="#purna"/></g><g transform="translate(-43 -278)"><use fill="#fff" fill-opacity="0" stroke="#fad200" stroke-linecap="round" stroke-linejoin="round" stroke-miterlimit="50" stroke-width="2" xlink:href="#purnb"/></g><g transform="translate(-43 -278)"><use fill="#fff" fill-opacity="0" stroke="#fad200" stroke-linecap="round" stroke-linejoin="round" stroke-miterlimit="50" stroke-width="2" xlink:href="#purnc"/></g><g transform="translate(-43 -278)"><use fill="#fff" fill-opacity="0" stroke="#00bddd" stroke-linecap="round" stroke-linejoin="round" stroke-miterlimit="50" stroke-width="2" xlink:href="#purnd"/></g></g></svg>