<?xml version="1.0" encoding="UTF-8"?>
<svg width="24px" height="21px" viewBox="0 0 24 21" version="1.1" xmlns="http://www.w3.org/2000/svg" xmlns:xlink="http://www.w3.org/1999/xlink">
    <!-- Generator: Sketch 47.1 (45422) - http://www.bohemiancoding.com/sketch -->
    <title>Page 1</title>
    <desc>Created with Sketch.</desc>
    <defs></defs>
    <g id="Visual-Design" stroke="none" stroke-width="1" fill="none" fill-rule="evenodd" stroke-linecap="round" stroke-linejoin="round">
        <g id="Chat@2x" transform="translate(-43.000000, -137.000000)" stroke-width="2">
            <g id="Page-1" transform="translate(44.000000, 138.000000)">
                <path d="M3.22447685,18.1721782 C1.31093519,16.2594005 0.127416667,13.6163449 0.127416667,10.6970162 C0.127416667,4.85937731 4.8594537,0.127340278 10.696838,0.127340278 C16.5344769,0.127340278 21.2665139,4.85937731 21.2665139,10.6970162 C21.2665139,12.1247245 20.9833657,13.4867384 20.470287,14.729331" id="Stroke-1" stroke="#FAD200"></path>
                <path d="M19.162331,17.0268287 C18.8590671,17.4316898 18.527794,17.8138889 18.1708032,18.1708796" id="Stroke-3" stroke="#FAD200"></path>
                <path d="M14.7285671,10.6969144 C14.7285671,12.9236505 12.9234977,14.7284653 10.6970162,14.7284653 C8.47028009,14.7284653 6.66521065,12.9236505 6.66521065,10.6969144 C6.66521065,8.47043287 8.47028009,6.66536343 10.6970162,6.66536343" id="Stroke-5" stroke="#00BDDD"></path>
                <path d="M10.6969653,10.6969144 L15.8343727,5.55976157" id="Stroke-7" stroke="#00BDDD"></path>
            </g>
        </g>
    </g>
</svg>