<svg xmlns="http://www.w3.org/2000/svg" xmlns:xlink="http://www.w3.org/1999/xlink" width="14" height="14" viewBox="0 0 14 14"><defs><path id="b370a" d="M1237.38 189.38v-5.25h1.75v5.25z"/><path id="b370b" d="M1240.88 189.38v-5.25h1.75v5.25z"/><path id="b370c" d="M1243.5 180.63h3.5v1.75h-.88v8.75c0 .52-.34.87-.87.87h-10.5c-.53 0-.88-.35-.88-.88v-8.75h-.87v-1.75h3.5v-1.75c0-.52.35-.87.88-.87h5.24c.53 0 .88.35.88.88zm-5.25 0h3.5v-.88h-3.5zm-2.63 1.75v7.87h8.76v-7.88z"/></defs><g><g transform="translate(-1233 -178)"><use fill="#b0bdc5" xlink:href="#b370a"/></g><g transform="translate(-1233 -178)"><use fill="#b0bdc5" xlink:href="#b370b"/></g><g transform="translate(-1233 -178)"><use fill="#b0bdc5" xlink:href="#b370c"/></g></g></svg>