<svg xmlns="http://www.w3.org/2000/svg" xmlns:xlink="http://www.w3.org/1999/xlink" width="50" height="50" viewBox="0 0 50 50"><defs><path id="2akka" d="M710 271a25 25 0 1 1 50 0 25 25 0 0 1-50 0z"/><path id="2akkb" d="M726 262h2.45v12.27H744"/><path id="2akkc" d="M728.45 278.37a1.63 1.63 0 1 1 3.27 0 1.63 1.63 0 0 1-3.27 0z"/><path id="2akkd" d="M740.73 278.37a1.63 1.63 0 1 1 3.27 0 1.63 1.63 0 0 1-3.27 0z"/><path id="2akke" d="M731.73 271v-9H744v9z"/><path id="2akkf" d="M731.73 265.27H744"/></defs><g><g transform="translate(-710 -246)"><use fill="#b0bdc5" fill-opacity=".2" xlink:href="#2akka"/></g><g transform="translate(-710 -246)"><use fill="#fff" fill-opacity="0" stroke="#b0bdc5" stroke-miterlimit="50" stroke-width="1.5" xlink:href="#2akkb"/></g><g transform="translate(-710 -246)"><use fill="#fff" fill-opacity="0" stroke="#b0bdc5" stroke-miterlimit="50" stroke-width="1.5" xlink:href="#2akkc"/></g><g transform="translate(-710 -246)"><use fill="#fff" fill-opacity="0" stroke="#b0bdc5" stroke-miterlimit="50" stroke-width="1.5" xlink:href="#2akkd"/></g><g transform="translate(-710 -246)"><use fill="#fff" fill-opacity="0" stroke="#b0bdc5" stroke-miterlimit="50" stroke-width="1.5" xlink:href="#2akke"/></g><g transform="translate(-710 -246)"><use fill="#fff" fill-opacity="0" stroke="#b0bdc5" stroke-miterlimit="50" stroke-width="1.5" xlink:href="#2akkf"/></g></g></svg>