<svg xmlns="http://www.w3.org/2000/svg" xmlns:xlink="http://www.w3.org/1999/xlink" width="22" height="16" viewBox="0 0 22 16"><defs><path id="k4z7a" d="M460.6 624.9h2.1V620l-1.4-4.2H455v9.1h1.4"/><path id="k4z7b" d="M460.6 624.9a2.1 2.1 0 1 1-4.2 0 2.1 2.1 0 0 1 4.2 0z"/><path id="k4z7c" d="M449.4 624.9h5.6V613h-12v12h3"/><path id="k4z7d" d="M446.73 618.46l1.64 1.63 3.27-3.27"/><path id="k4z7e" d="M449.4 624.9a2.1 2.1 0 1 1-4.2 0 2.1 2.1 0 0 1 4.2 0z"/></defs><g><g transform="translate(-442 -612)"><use fill="#fff" fill-opacity="0" stroke="#b0bdc5" stroke-miterlimit="50" stroke-width="1.5" xlink:href="#k4z7a"/></g><g transform="translate(-442 -612)"><use fill="#fff" fill-opacity="0" stroke="#b0bdc5" stroke-miterlimit="50" stroke-width="1.5" xlink:href="#k4z7b"/></g><g transform="translate(-442 -612)"><use fill="#fff" fill-opacity="0" stroke="#b0bdc5" stroke-miterlimit="50" stroke-width="1.5" xlink:href="#k4z7c"/></g><g transform="translate(-442 -612)"><use fill="#fff" fill-opacity="0" stroke="#b0bdc5" stroke-miterlimit="50" stroke-width="1.5" xlink:href="#k4z7d"/></g><g transform="translate(-442 -612)"><use fill="#fff" fill-opacity="0" stroke="#b0bdc5" stroke-miterlimit="50" stroke-width="1.5" xlink:href="#k4z7e"/></g></g></svg>