<svg xmlns="http://www.w3.org/2000/svg" xmlns:xlink="http://www.w3.org/1999/xlink" width="14" height="14" viewBox="0 0 14 14"><defs><path id="wfe5a" d="M1193 187.63V185a.8.8 0 0 1 .26-.61l6.13-6.13a.85.85 0 0 1 1.22 0l2.63 2.63c.35.35.35.87 0 1.22l-6.13 6.13a.8.8 0 0 1-.61.26h-2.63c-.52 0-.87-.35-.87-.88zm1.75-.88h1.4l5.25-5.25-1.4-1.4-5.25 5.25z"/><path id="wfe5b" d="M1193 192v-1.75h14V192z"/></defs><g><g transform="translate(-1193 -178)"><use fill="#b0bdc5" xlink:href="#wfe5a"/></g><g transform="translate(-1193 -178)"><use fill="#b0bdc5" xlink:href="#wfe5b"/></g></g></svg>