<?xml version="1.0" encoding="UTF-8"?>
<svg width="62px" height="62px" viewBox="0 0 62 62" version="1.1" xmlns="http://www.w3.org/2000/svg" xmlns:xlink="http://www.w3.org/1999/xlink">
    <!-- Generator: Sketch 47.1 (45422) - http://www.bohemiancoding.com/sketch -->
    <title>Group</title>
    <desc>Created with Sketch.</desc>
    <defs>
        <circle id="path-1" cx="20" cy="20" r="20"></circle>
        <filter x="-47.5%" y="-35.0%" width="195.0%" height="195.0%" filterUnits="objectBoundingBox" id="filter-2">
            <feOffset dx="0" dy="5" in="SourceAlpha" result="shadowOffsetOuter1"></feOffset>
            <feGaussianBlur stdDeviation="5.5" in="shadowOffsetOuter1" result="shadowBlurOuter1"></feGaussianBlur>
            <feColorMatrix values="0 0 0 0 0   0 0 0 0 0   0 0 0 0 0  0 0 0 0.1 0" type="matrix" in="shadowBlurOuter1"></feColorMatrix>
        </filter>
    </defs>
    <g id="Visual-Design" stroke="none" stroke-width="1" fill="none" fill-rule="evenodd">
        <g id="Dashboard@2x" transform="translate(-774.000000, -327.000000)">
            <g id="Group" transform="translate(785.000000, 333.000000)">
                <g id="Oval">
                    <use fill="black" fill-opacity="1" filter="url(#filter-2)" xlink:href="#path-1"></use>
                    <use fill="#FFFFFF" fill-rule="evenodd" xlink:href="#path-1"></use>
                </g>
                <g id="hourglass" transform="translate(13.000000, 12.000000)" stroke="#E0B572" stroke-width="2" stroke-linecap="round" stroke-linejoin="round">
                    <path d="M11.5,15.5 C11.5,15.5 11.5,14.716 11.5,14.5 C11.5,11.657 10.545,9.11 9,8 C10.545,6.89 11.5,4.343 11.5,1.5 C11.5,1.284 11.5,0.5 11.5,0.5" id="Shape"></path>
                    <path d="M2.5,15.5 C2.5,15.5 2.5,14.716 2.5,14.5 C2.5,11.657 3.455,9.11 5,8 C3.455,6.89 2.5,4.343 2.5,1.5 C2.5,1.284 2.5,0.5 2.5,0.5" id="Shape"></path>
                    <path d="M0.5,0.5 L13.5,0.5" id="Shape"></path>
                    <path d="M0.5,15.5 L13.5,15.5" id="Shape"></path>
                </g>
            </g>
        </g>
    </g>
</svg>