<svg xmlns="http://www.w3.org/2000/svg" xmlns:xlink="http://www.w3.org/1999/xlink" width="50" height="50" viewBox="0 0 50 50"><defs><path id="naata" d="M740 257a25 25 0 1 1 50 0 25 25 0 0 1-50 0z"/><path id="naatb" d="M770.53 265.24v-1.18c0-3.34-1.12-6.34-2.94-7.65 1.82-1.3 2.94-4.3 2.94-7.64v-1.18"/><path id="naatc" d="M759.94 265.24v-1.18c0-3.34 1.12-6.34 2.94-7.65-1.82-1.3-2.94-4.3-2.94-7.64v-1.18"/><path id="naatd" d="M757.59 247.59h15.3"/><path id="naate" d="M757.59 265.24h15.3"/></defs><g><g transform="translate(-740 -232)"><use fill="#e0b572" fill-opacity=".2" xlink:href="#naata"/></g><g transform="translate(-740 -232)"><use fill="#fff" fill-opacity="0" stroke="#e0b572" stroke-linecap="round" stroke-linejoin="round" stroke-miterlimit="50" stroke-width="2" xlink:href="#naatb"/></g><g transform="translate(-740 -232)"><use fill="#fff" fill-opacity="0" stroke="#e0b572" stroke-linecap="round" stroke-linejoin="round" stroke-miterlimit="50" stroke-width="2" xlink:href="#naatc"/></g><g transform="translate(-740 -232)"><use fill="#fff" fill-opacity="0" stroke="#e0b572" stroke-linecap="round" stroke-linejoin="round" stroke-miterlimit="50" stroke-width="2" xlink:href="#naatd"/></g><g transform="translate(-740 -232)"><use fill="#fff" fill-opacity="0" stroke="#e0b572" stroke-linecap="round" stroke-linejoin="round" stroke-miterlimit="50" stroke-width="2" xlink:href="#naate"/></g></g></svg>