<?xml version="1.0" encoding="UTF-8"?>
<svg width="22px" height="22px" viewBox="0 0 22 22" version="1.1" xmlns="http://www.w3.org/2000/svg" xmlns:xlink="http://www.w3.org/1999/xlink">
    <!-- Generator: Sketch 47.1 (45422) - http://www.bohemiancoding.com/sketch -->
    <title>Page 1</title>
    <desc>Created with Sketch.</desc>
    <defs></defs>
    <g id="Visual-Design" stroke="none" stroke-width="1" fill="none" fill-rule="evenodd" stroke-linecap="round">
        <g id="Chat@2x" transform="translate(-44.000000, -417.000000)" stroke-width="2">
            <g id="Page-1" transform="translate(45.000000, 418.000000)">
                <path d="M9.97934831,19.8462472 C4.53867416,19.8462472 0.112382022,15.4199551 0.112382022,9.97950562 C0.112382022,4.53883146 4.53867416,0.112314607 9.97934831,0.112314607 C15.4197978,0.112314607 19.8463146,4.53883146 19.8463146,9.97950562" id="Stroke-1" stroke="#FAD200"></path>
                <path d="M9.97934831,16.672427 C6.28878652,16.672427 3.28608989,13.6699551 3.28608989,9.97939326 C3.28608989,6.28860674 6.28878652,3.28613483 9.97934831,3.28613483 C11.896427,3.28613483 13.6276629,4.09624719 14.8490112,5.39197753" id="Stroke-3" stroke="#FAD200"></path>
                <path d="M9.97934831,13.4987191 C8.03575281,13.4987191 6.46002247,11.9229888 6.46002247,9.97939326 C6.46002247,8.51849438 7.34991011,7.26568539 8.61732584,6.73332584" id="Stroke-5" stroke="#00BDDD"></path>
            </g>
        </g>
    </g>
</svg>