<svg xmlns="http://www.w3.org/2000/svg" xmlns:xlink="http://www.w3.org/1999/xlink" width="424" height="320" viewBox="0 0 424 320"><defs><path id="47qea" d="M752 419a20 20 0 1 1 40 0 20 20 0 0 1-40 0z"/><path id="47qeb" d="M822 537a20 20 0 1 1 40 0 20 20 0 0 1-40 0z"/><path id="47qec" d="M1114 628a20 20 0 1 1 40 0 20 20 0 0 1-40 0z"/><path id="47qed" d="M788 424l18 13h79l-70 63 26 35 29 30 25 49 16 26 6-20 142 83 33 8 16-33h17l20-44"/><path id="47qee" d="M788 424l18 13h79l-70 63 27 35"/><path id="47qeh" d="M763.56 419a8.44 8.44 0 1 1 16.88 0 8.44 8.44 0 0 1-16.88 0z"/><path id="47qei" d="M768.06 418.44l2.81 2.81 5.63-5.62"/><path id="47qel" d="M838 542v2h-3v-2"/><path id="47qem" d="M848 542v2h-3v-2"/><path id="47qen" d="M848 542h-13v-4l1-1h11l1 1z"/><path id="47qeo" d="M834 534v2"/><path id="47qep" d="M849 534v2"/><path id="47qeq" d="M836 537v-5a1 1 0 0 1 1-1h9a1 1 0 0 1 1 1v5"/><path id="47qer" d="M836 539a1 1 0 1 1 2 0 1 1 0 0 1-2 0z"/><path id="47qes" d="M844 539a1 1 0 1 1 2 0 1 1 0 0 1-2 0z"/><path id="47qet" d="M836 529h11"/><path id="47qew" d="M1140.71 626.86c0 4.2-6.85 11.14-6.85 11.14s-6.86-6.94-6.86-11.14a6.76 6.76 0 0 1 6.86-6.86 6.76 6.76 0 0 1 6.85 6.86z"/><path id="47qex" d="M1131.29 626.86a2.57 2.57 0 1 1 5.14 0 2.57 2.57 0 0 1-5.14 0z"/><mask id="47qeg" width="2" height="2" x="-1" y="-1"><path fill="#fff" d="M752 399h40v40h-40z"/><use xlink:href="#47qea"/></mask><filter id="47qef" width="82" height="87" x="731" y="389" filterUnits="userSpaceOnUse"><feOffset dy="5" in="SourceGraphic" result="FeOffset1179Out"/><feGaussianBlur in="FeOffset1179Out" result="FeGaussianBlur1180Out" stdDeviation="4.4 4.4"/></filter><mask id="47qek" width="2" height="2" x="-1" y="-1"><path fill="#fff" d="M822 517h40v40h-40z"/><use xlink:href="#47qeb"/></mask><filter id="47qej" width="82" height="87" x="801" y="507" filterUnits="userSpaceOnUse"><feOffset dy="5" in="SourceGraphic" result="FeOffset1205Out"/><feGaussianBlur in="FeOffset1205Out" result="FeGaussianBlur1206Out" stdDeviation="4.4 4.4"/></filter><mask id="47qev" width="2" height="2" x="-1" y="-1"><path fill="#fff" d="M1114 608h40v40h-40z"/><use xlink:href="#47qec"/></mask><filter id="47qeu" width="82" height="87" x="1093" y="598" filterUnits="userSpaceOnUse"><feOffset dy="5" in="SourceGraphic" result="FeOffset1266Out"/><feGaussianBlur in="FeOffset1266Out" result="FeGaussianBlur1267Out" stdDeviation="4.4 4.4"/></filter></defs><g><g opacity=".2" transform="translate(-741 -393)"><use fill="#fff" fill-opacity="0" stroke="#00bddd" stroke-linecap="round" stroke-linejoin="round" stroke-miterlimit="50" stroke-width="4" xlink:href="#47qed"/></g><g transform="translate(-741 -393)"><use fill="#fff" fill-opacity="0" stroke="#00bddd" stroke-linecap="round" stroke-linejoin="round" stroke-miterlimit="50" stroke-width="4" xlink:href="#47qee"/></g><g transform="translate(-741 -393)"><g filter="url(#47qef)"><use fill="none" stroke-opacity=".1" stroke-width="0" mask="url(&quot;#47qeg&quot;)" xlink:href="#47qea"/><use fill-opacity=".1" xlink:href="#47qea"/></g><use fill="#00bddd" xlink:href="#47qea"/></g><g transform="translate(-741 -393)"><use fill="#fff" fill-opacity="0" stroke="#fff" stroke-linecap="round" stroke-linejoin="round" stroke-miterlimit="50" stroke-width="2" xlink:href="#47qeh"/></g><g transform="translate(-741 -393)"><use fill="#fff" fill-opacity="0" stroke="#fff" stroke-linecap="round" stroke-linejoin="round" stroke-miterlimit="50" stroke-width="2" xlink:href="#47qei"/></g><g transform="translate(-741 -393)"><g filter="url(#47qej)"><use fill="none" stroke-opacity=".1" stroke-width="0" mask="url(&quot;#47qek&quot;)" xlink:href="#47qeb"/><use fill-opacity=".1" xlink:href="#47qeb"/></g><use fill="#fff" xlink:href="#47qeb"/></g><g transform="translate(-741 -393)"><use fill="#fff" fill-opacity="0" stroke="#72e0da" stroke-linecap="round" stroke-linejoin="round" stroke-miterlimit="50" stroke-width="1.5" xlink:href="#47qel"/></g><g transform="translate(-741 -393)"><use fill="#fff" fill-opacity="0" stroke="#72e0da" stroke-linecap="round" stroke-linejoin="round" stroke-miterlimit="50" stroke-width="1.5" xlink:href="#47qem"/></g><g transform="translate(-741 -393)"><use fill="#fff" fill-opacity="0" stroke="#72e0da" stroke-linecap="round" stroke-linejoin="round" stroke-miterlimit="50" stroke-width="1.5" xlink:href="#47qen"/></g><g transform="translate(-741 -393)"><use fill="#fff" fill-opacity="0" stroke="#72e0da" stroke-linecap="round" stroke-linejoin="round" stroke-miterlimit="50" stroke-width="1.5" xlink:href="#47qeo"/></g><g transform="translate(-741 -393)"><use fill="#fff" fill-opacity="0" stroke="#72e0da" stroke-linecap="round" stroke-linejoin="round" stroke-miterlimit="50" stroke-width="1.5" xlink:href="#47qep"/></g><g transform="translate(-741 -393)"><use fill="#fff" fill-opacity="0" stroke="#72e0da" stroke-linecap="round" stroke-linejoin="round" stroke-miterlimit="50" stroke-width="1.5" xlink:href="#47qeq"/></g><g transform="translate(-741 -393)"><use fill="#72e0da" xlink:href="#47qer"/></g><g transform="translate(-741 -393)"><use fill="#72e0da" xlink:href="#47qes"/></g><g transform="translate(-741 -393)"><use fill="#fff" fill-opacity="0" stroke="#72e0da" stroke-linecap="round" stroke-linejoin="round" stroke-miterlimit="50" stroke-width="1.5" xlink:href="#47qet"/></g><g transform="translate(-741 -393)"><g filter="url(#47qeu)"><use fill="none" stroke-opacity=".1" stroke-width="0" mask="url(&quot;#47qev&quot;)" xlink:href="#47qec"/><use fill-opacity=".1" xlink:href="#47qec"/></g><use fill="#fff" xlink:href="#47qec"/></g><g transform="translate(-741 -393)"><use fill="#fff" fill-opacity="0" stroke="#72e0da" stroke-linecap="round" stroke-linejoin="round" stroke-miterlimit="50" stroke-width="1.5" xlink:href="#47qew"/></g><g transform="translate(-741 -393)"><use fill="#fff" fill-opacity="0" stroke="#72e0da" stroke-linecap="round" stroke-linejoin="round" stroke-miterlimit="50" stroke-width="1.5" xlink:href="#47qex"/></g></g></svg>