<svg xmlns="http://www.w3.org/2000/svg" xmlns:xlink="http://www.w3.org/1999/xlink" width="16" height="16" viewBox="0 0 16 16"><defs><path id="1pasa" d="M315.78 48.55c.37.38.37.94 0 1.32-.2.19-.47.28-.66.28-.2 0-.47-.1-.66-.28l-2.82-2.82a6.25 6.25 0 0 1-3.96 1.31 6.7 6.7 0 0 1-6.68-6.68 6.63 6.63 0 1 1 13.27 0c0 1.5-.47 2.83-1.32 3.96zm-3.3-6.87c0-2.63-2.16-4.8-4.8-4.8a4.82 4.82 0 0 0-4.8 4.8c0 2.64 2.17 4.7 4.8 4.7 2.64 0 4.8-2.06 4.8-4.7z"/></defs><g><g transform="translate(-301 -35)"><use fill="#808e97" xlink:href="#1pasa"/></g></g></svg>