<svg xmlns="http://www.w3.org/2000/svg" xmlns:xlink="http://www.w3.org/1999/xlink" width="23" height="16" viewBox="0 0 23 16"><defs><path id="q8bja" d="M460.6 683.9h2.1V679l-1.4-4.2H455v9.1h1.4"/><path id="q8bjb" d="M460.6 683.9a2.1 2.1 0 1 1-4.2 0 2.1 2.1 0 0 1 4.2 0z"/><path id="q8bjc" d="M443.1 679.7v4.2h2.1"/><path id="q8bjd" d="M449.4 683.9h5.6V672h-14"/><path id="q8bje" d="M449.4 683.9a2.1 2.1 0 1 1-4.2 0 2.1 2.1 0 0 1 4.2 0z"/><path id="q8bjf" d="M441.7 674.8h6.3"/><path id="q8bjg" d="M442.4 677.6h4.2"/></defs><g><g transform="translate(-441 -671)"><use fill="#fff" fill-opacity="0" stroke="#b0bdc5" stroke-miterlimit="50" stroke-width="1.5" xlink:href="#q8bja"/></g><g transform="translate(-441 -671)"><use fill="#fff" fill-opacity="0" stroke="#b0bdc5" stroke-miterlimit="50" stroke-width="1.5" xlink:href="#q8bjb"/></g><g transform="translate(-441 -671)"><use fill="#fff" fill-opacity="0" stroke="#b0bdc5" stroke-miterlimit="50" stroke-width="1.5" xlink:href="#q8bjc"/></g><g transform="translate(-441 -671)"><use fill="#fff" fill-opacity="0" stroke="#b0bdc5" stroke-miterlimit="50" stroke-width="1.5" xlink:href="#q8bjd"/></g><g transform="translate(-441 -671)"><use fill="#fff" fill-opacity="0" stroke="#b0bdc5" stroke-miterlimit="50" stroke-width="1.5" xlink:href="#q8bje"/></g><g transform="translate(-441 -671)"><use fill="#fff" fill-opacity="0" stroke="#b0bdc5" stroke-miterlimit="50" stroke-width="1.5" xlink:href="#q8bjf"/></g><g transform="translate(-441 -671)"><use fill="#fff" fill-opacity="0" stroke="#b0bdc5" stroke-miterlimit="50" stroke-width="1.5" xlink:href="#q8bjg"/></g></g></svg>