<svg xmlns="http://www.w3.org/2000/svg" xmlns:xlink="http://www.w3.org/1999/xlink" width="50" height="50" viewBox="0 0 50 50"><defs><path id="cyn7a" d="M1017 271a25 25 0 1 1 50 0 25 25 0 0 1-50 0z"/><path id="cyn7b" d="M1037.07 277.47V280h-3.8v-2.53"/><path id="cyn7c" d="M1049.73 277.47V280h-3.8v-2.53"/><path id="cyn7d" d="M1049.74 277.46h-16.47v-5.06l1.27-1.27h13.93l1.27 1.27z"/><path id="cyn7e" d="M1032 267.33v2.53"/><path id="cyn7f" d="M1051 267.33v2.53"/><path id="cyn7g" d="M1034.53 271.13v-6.33c0-.7.57-1.27 1.27-1.27h11.4c.7 0 1.26.57 1.26 1.27v6.33"/><path id="cyn7h" d="M1035.53 273.67a1.27 1.27 0 1 1 2.53 0 1.27 1.27 0 0 1-2.53 0z"/><path id="cyn7i" d="M1045.67 273.67a1.27 1.27 0 1 1 2.53 0 1.27 1.27 0 0 1-2.53 0z"/><path id="cyn7j" d="M1034.53 261h13.93"/></defs><g><g transform="translate(-1017 -246)"><use fill="#b0bdc5" fill-opacity=".2" xlink:href="#cyn7a"/></g><g transform="translate(-1017 -246)"><use fill="#fff" fill-opacity="0" stroke="#b0bdc5" stroke-miterlimit="50" stroke-width="1.5" xlink:href="#cyn7b"/></g><g transform="translate(-1017 -246)"><use fill="#fff" fill-opacity="0" stroke="#b0bdc5" stroke-miterlimit="50" stroke-width="1.5" xlink:href="#cyn7c"/></g><g transform="translate(-1017 -246)"><use fill="#fff" fill-opacity="0" stroke="#b0bdc5" stroke-miterlimit="50" stroke-width="1.5" xlink:href="#cyn7d"/></g><g transform="translate(-1017 -246)"><use fill="#fff" fill-opacity="0" stroke="#b0bdc5" stroke-miterlimit="50" stroke-width="1.5" xlink:href="#cyn7e"/></g><g transform="translate(-1017 -246)"><use fill="#fff" fill-opacity="0" stroke="#b0bdc5" stroke-miterlimit="50" stroke-width="1.5" xlink:href="#cyn7f"/></g><g transform="translate(-1017 -246)"><use fill="#fff" fill-opacity="0" stroke="#b0bdc5" stroke-miterlimit="50" stroke-width="1.5" xlink:href="#cyn7g"/></g><g transform="translate(-1017 -246)"><use fill="#b0bdc5" xlink:href="#cyn7h"/></g><g transform="translate(-1017 -246)"><use fill="#b0bdc5" xlink:href="#cyn7i"/></g><g transform="translate(-1017 -246)"><use fill="#fff" fill-opacity="0" stroke="#b0bdc5" stroke-miterlimit="50" stroke-width="1.5" xlink:href="#cyn7j"/></g></g></svg>