<?xml version="1.0" encoding="UTF-8"?>
<svg width="22px" height="22px" viewBox="0 0 22 22" version="1.1" xmlns="http://www.w3.org/2000/svg" xmlns:xlink="http://www.w3.org/1999/xlink">
    <!-- Generator: Sketch 47.1 (45422) - http://www.bohemiancoding.com/sketch -->
    <title>Page 1</title>
    <desc>Created with Sketch.</desc>
    <defs></defs>
    <g id="Visual-Design" stroke="none" stroke-width="1" fill="none" fill-rule="evenodd" stroke-linecap="round" stroke-linejoin="round">
        <g id="Chat@2x" transform="translate(-44.000000, -346.000000)" stroke-width="2">
            <g id="Page-1" transform="translate(45.000000, 347.000000)">
                <path d="M10.0302093,10.4315116 C11.6455581,10.4315116 12.9495116,9.12755814 12.9495116,7.5122093 C12.9495116,5.89686047 11.6455581,4.59313953 10.0302093,4.59313953 C8.41486047,4.59313953 7.11090698,5.89686047 7.11090698,7.5122093 C7.11090698,9.12755814 8.41486047,10.4315116 10.0302093,10.4315116 Z" id="Stroke-1" stroke="#00BDDD"></path>
                <path d="M15.5047442,18.2645814 L15.5047442,15.9292326 C15.5047442,14.1043488 11.8549767,13.1008605 10.030093,13.1008605 C8.2052093,13.1008605 4.55567442,14.1043488 4.55567442,15.9292326 L4.55567442,18.2964419" id="Stroke-3" stroke="#00BDDD"></path>
                <path d="M14.7736744,1.3225814 C15.4287907,1.68025581 16.0390233,2.10955814 16.593907,2.60025581" id="Stroke-5" stroke="#FAD200"></path>
                <path d="M17.7944419,3.86504651 C19.1402558,5.55760465 19.9439767,7.69993023 19.9439767,10.0301628 C19.9439767,15.5055116 15.5053721,19.9441163 10.0302558,19.9441163 C4.55490698,19.9441163 0.116302326,15.5055116 0.116302326,10.0301628 C0.116302326,4.55481395 4.55490698,0.116209302 10.0302558,0.116209302 C11.1356047,0.116209302 12.1986279,0.297139535 13.1916512,0.631093023" id="Stroke-7" stroke="#FAD200"></path>
            </g>
        </g>
    </g>
</svg>